G75*
%MOIN*%
%OFA0B0*%
%FSLAX25Y25*%
%IPPOS*%
%LPD*%
%AMOC8*
5,1,8,0,0,1.08239X$1,22.5*
%
%ADD10C,0.00400*%
%ADD11R,0.01969X0.01969*%
%ADD12R,0.03150X0.03150*%
%ADD13R,0.03150X0.03543*%
%ADD14R,0.01181X0.06299*%
%ADD15R,0.06299X0.01181*%
%ADD16R,0.06299X0.09055*%
%ADD17R,0.10236X0.07480*%
%ADD18R,0.04331X0.07480*%
D10*
X0001487Y0009174D02*
X0001487Y0131221D01*
X0001489Y0131414D01*
X0001496Y0131607D01*
X0001508Y0131800D01*
X0001525Y0131993D01*
X0001546Y0132185D01*
X0001572Y0132376D01*
X0001603Y0132567D01*
X0001638Y0132757D01*
X0001678Y0132946D01*
X0001723Y0133134D01*
X0001772Y0133321D01*
X0001826Y0133507D01*
X0001884Y0133691D01*
X0001947Y0133874D01*
X0002015Y0134055D01*
X0002086Y0134234D01*
X0002163Y0134412D01*
X0002243Y0134588D01*
X0002328Y0134761D01*
X0002417Y0134933D01*
X0002510Y0135102D01*
X0002607Y0135269D01*
X0002709Y0135434D01*
X0002814Y0135596D01*
X0002923Y0135755D01*
X0003037Y0135912D01*
X0003154Y0136065D01*
X0003274Y0136216D01*
X0003399Y0136364D01*
X0003527Y0136509D01*
X0003658Y0136650D01*
X0003793Y0136789D01*
X0003932Y0136924D01*
X0004073Y0137055D01*
X0004218Y0137183D01*
X0004366Y0137308D01*
X0004517Y0137428D01*
X0004670Y0137545D01*
X0004827Y0137659D01*
X0004986Y0137768D01*
X0005148Y0137873D01*
X0005313Y0137975D01*
X0005480Y0138072D01*
X0005649Y0138165D01*
X0005821Y0138254D01*
X0005994Y0138339D01*
X0006170Y0138419D01*
X0006348Y0138496D01*
X0006527Y0138567D01*
X0006708Y0138635D01*
X0006891Y0138698D01*
X0007075Y0138756D01*
X0007261Y0138810D01*
X0007448Y0138859D01*
X0007636Y0138904D01*
X0007825Y0138944D01*
X0008015Y0138979D01*
X0008206Y0139010D01*
X0008397Y0139036D01*
X0008589Y0139057D01*
X0008782Y0139074D01*
X0008975Y0139086D01*
X0009168Y0139093D01*
X0009361Y0139095D01*
X0119660Y0139095D01*
X0119850Y0139093D01*
X0120040Y0139086D01*
X0120230Y0139074D01*
X0120420Y0139058D01*
X0120609Y0139038D01*
X0120798Y0139012D01*
X0120986Y0138983D01*
X0121173Y0138948D01*
X0121359Y0138909D01*
X0121544Y0138866D01*
X0121729Y0138818D01*
X0121912Y0138766D01*
X0122093Y0138710D01*
X0122273Y0138649D01*
X0122452Y0138583D01*
X0122629Y0138514D01*
X0122805Y0138440D01*
X0122978Y0138362D01*
X0123150Y0138279D01*
X0123319Y0138193D01*
X0123487Y0138103D01*
X0123652Y0138008D01*
X0123815Y0137910D01*
X0123975Y0137807D01*
X0124133Y0137701D01*
X0124288Y0137591D01*
X0124441Y0137478D01*
X0124591Y0137360D01*
X0124737Y0137239D01*
X0124881Y0137115D01*
X0125022Y0136987D01*
X0125160Y0136856D01*
X0125295Y0136721D01*
X0125426Y0136583D01*
X0125554Y0136442D01*
X0125678Y0136298D01*
X0125799Y0136152D01*
X0125917Y0136002D01*
X0126030Y0135849D01*
X0126140Y0135694D01*
X0126246Y0135536D01*
X0126349Y0135376D01*
X0126447Y0135213D01*
X0126542Y0135048D01*
X0126632Y0134880D01*
X0126718Y0134711D01*
X0126801Y0134539D01*
X0126879Y0134366D01*
X0126953Y0134190D01*
X0127022Y0134013D01*
X0127088Y0133834D01*
X0127149Y0133654D01*
X0127205Y0133473D01*
X0127257Y0133290D01*
X0127305Y0133105D01*
X0127348Y0132920D01*
X0127387Y0132734D01*
X0127422Y0132547D01*
X0127451Y0132359D01*
X0127477Y0132170D01*
X0127497Y0131981D01*
X0127513Y0131791D01*
X0127525Y0131601D01*
X0127532Y0131411D01*
X0127534Y0131221D01*
X0127534Y0009174D01*
X0127532Y0008984D01*
X0127525Y0008794D01*
X0127513Y0008604D01*
X0127497Y0008414D01*
X0127477Y0008225D01*
X0127451Y0008036D01*
X0127422Y0007848D01*
X0127387Y0007661D01*
X0127348Y0007475D01*
X0127305Y0007290D01*
X0127257Y0007105D01*
X0127205Y0006922D01*
X0127149Y0006741D01*
X0127088Y0006561D01*
X0127022Y0006382D01*
X0126953Y0006205D01*
X0126879Y0006029D01*
X0126801Y0005856D01*
X0126718Y0005684D01*
X0126632Y0005515D01*
X0126542Y0005347D01*
X0126447Y0005182D01*
X0126349Y0005019D01*
X0126246Y0004859D01*
X0126140Y0004701D01*
X0126030Y0004546D01*
X0125917Y0004393D01*
X0125799Y0004243D01*
X0125678Y0004097D01*
X0125554Y0003953D01*
X0125426Y0003812D01*
X0125295Y0003674D01*
X0125160Y0003539D01*
X0125022Y0003408D01*
X0124881Y0003280D01*
X0124737Y0003156D01*
X0124591Y0003035D01*
X0124441Y0002917D01*
X0124288Y0002804D01*
X0124133Y0002694D01*
X0123975Y0002588D01*
X0123815Y0002485D01*
X0123652Y0002387D01*
X0123487Y0002292D01*
X0123319Y0002202D01*
X0123150Y0002116D01*
X0122978Y0002033D01*
X0122805Y0001955D01*
X0122629Y0001881D01*
X0122452Y0001812D01*
X0122273Y0001746D01*
X0122093Y0001685D01*
X0121912Y0001629D01*
X0121729Y0001577D01*
X0121544Y0001529D01*
X0121359Y0001486D01*
X0121173Y0001447D01*
X0120986Y0001412D01*
X0120798Y0001383D01*
X0120609Y0001357D01*
X0120420Y0001337D01*
X0120230Y0001321D01*
X0120040Y0001309D01*
X0119850Y0001302D01*
X0119660Y0001300D01*
X0009361Y0001300D01*
X0009171Y0001302D01*
X0008981Y0001309D01*
X0008791Y0001321D01*
X0008601Y0001337D01*
X0008412Y0001357D01*
X0008223Y0001383D01*
X0008035Y0001412D01*
X0007848Y0001447D01*
X0007662Y0001486D01*
X0007477Y0001529D01*
X0007292Y0001577D01*
X0007109Y0001629D01*
X0006928Y0001685D01*
X0006748Y0001746D01*
X0006569Y0001812D01*
X0006392Y0001881D01*
X0006216Y0001955D01*
X0006043Y0002033D01*
X0005871Y0002116D01*
X0005702Y0002202D01*
X0005534Y0002292D01*
X0005369Y0002387D01*
X0005206Y0002485D01*
X0005046Y0002588D01*
X0004888Y0002694D01*
X0004733Y0002804D01*
X0004580Y0002917D01*
X0004430Y0003035D01*
X0004284Y0003156D01*
X0004140Y0003280D01*
X0003999Y0003408D01*
X0003861Y0003539D01*
X0003726Y0003674D01*
X0003595Y0003812D01*
X0003467Y0003953D01*
X0003343Y0004097D01*
X0003222Y0004243D01*
X0003104Y0004393D01*
X0002991Y0004546D01*
X0002881Y0004701D01*
X0002775Y0004859D01*
X0002672Y0005019D01*
X0002574Y0005182D01*
X0002479Y0005347D01*
X0002389Y0005515D01*
X0002303Y0005684D01*
X0002220Y0005856D01*
X0002142Y0006029D01*
X0002068Y0006205D01*
X0001999Y0006382D01*
X0001933Y0006561D01*
X0001872Y0006741D01*
X0001816Y0006922D01*
X0001764Y0007105D01*
X0001716Y0007290D01*
X0001673Y0007475D01*
X0001634Y0007661D01*
X0001599Y0007848D01*
X0001570Y0008036D01*
X0001544Y0008225D01*
X0001524Y0008414D01*
X0001508Y0008604D01*
X0001496Y0008794D01*
X0001489Y0008984D01*
X0001487Y0009174D01*
D11*
X0022987Y0025800D03*
X0026987Y0025800D03*
X0026987Y0030800D03*
X0022987Y0030800D03*
X0029737Y0047800D03*
X0033737Y0047800D03*
X0033737Y0052800D03*
X0029737Y0052800D03*
X0024487Y0064800D03*
X0024487Y0068800D03*
X0012487Y0055800D03*
X0008487Y0055800D03*
X0008487Y0050300D03*
X0012487Y0050300D03*
X0012487Y0084300D03*
X0008487Y0084300D03*
X0008487Y0089800D03*
X0012487Y0089800D03*
X0023377Y0097805D03*
X0023377Y0101805D03*
X0043377Y0103505D03*
X0047377Y0103505D03*
X0047377Y0098505D03*
X0043377Y0098505D03*
X0043377Y0108505D03*
X0047377Y0108505D03*
X0047377Y0113505D03*
X0043377Y0113505D03*
X0083677Y0107005D03*
X0087677Y0107005D03*
X0087677Y0102005D03*
X0083677Y0102005D03*
X0097487Y0101300D03*
X0097487Y0105300D03*
X0097487Y0095300D03*
X0097487Y0091300D03*
X0100487Y0075800D03*
X0104487Y0075800D03*
X0114987Y0075800D03*
X0118987Y0075800D03*
X0093487Y0043300D03*
X0089487Y0043300D03*
X0052987Y0030800D03*
X0048987Y0030800D03*
X0048987Y0025800D03*
X0052987Y0025800D03*
D12*
X0023487Y0047300D03*
X0023487Y0053300D03*
X0089987Y0037300D03*
X0095987Y0037300D03*
D13*
X0024487Y0075300D03*
X0024487Y0081300D03*
D14*
G36*
X0036672Y0062404D02*
X0035838Y0063238D01*
X0040290Y0067690D01*
X0041124Y0066856D01*
X0036672Y0062404D01*
G37*
G36*
X0038064Y0061012D02*
X0037230Y0061846D01*
X0041682Y0066298D01*
X0042516Y0065464D01*
X0038064Y0061012D01*
G37*
G36*
X0039456Y0059621D02*
X0038622Y0060455D01*
X0043074Y0064907D01*
X0043908Y0064073D01*
X0039456Y0059621D01*
G37*
G36*
X0040848Y0058229D02*
X0040014Y0059063D01*
X0044466Y0063515D01*
X0045300Y0062681D01*
X0040848Y0058229D01*
G37*
G36*
X0042240Y0056837D02*
X0041406Y0057671D01*
X0045858Y0062123D01*
X0046692Y0061289D01*
X0042240Y0056837D01*
G37*
G36*
X0043632Y0055445D02*
X0042798Y0056279D01*
X0047250Y0060731D01*
X0048084Y0059897D01*
X0043632Y0055445D01*
G37*
G36*
X0045024Y0054053D02*
X0044190Y0054887D01*
X0048642Y0059339D01*
X0049476Y0058505D01*
X0045024Y0054053D01*
G37*
G36*
X0046416Y0052661D02*
X0045582Y0053495D01*
X0050034Y0057947D01*
X0050868Y0057113D01*
X0046416Y0052661D01*
G37*
G36*
X0047808Y0051269D02*
X0046974Y0052103D01*
X0051426Y0056555D01*
X0052260Y0055721D01*
X0047808Y0051269D01*
G37*
G36*
X0049200Y0049877D02*
X0048366Y0050711D01*
X0052818Y0055163D01*
X0053652Y0054329D01*
X0049200Y0049877D01*
G37*
G36*
X0050592Y0048485D02*
X0049758Y0049319D01*
X0054210Y0053771D01*
X0055044Y0052937D01*
X0050592Y0048485D01*
G37*
G36*
X0051984Y0047093D02*
X0051150Y0047927D01*
X0055602Y0052379D01*
X0056436Y0051545D01*
X0051984Y0047093D01*
G37*
G36*
X0053376Y0045701D02*
X0052542Y0046535D01*
X0056994Y0050987D01*
X0057828Y0050153D01*
X0053376Y0045701D01*
G37*
G36*
X0054768Y0044309D02*
X0053934Y0045143D01*
X0058386Y0049595D01*
X0059220Y0048761D01*
X0054768Y0044309D01*
G37*
G36*
X0056160Y0042917D02*
X0055326Y0043751D01*
X0059778Y0048203D01*
X0060612Y0047369D01*
X0056160Y0042917D01*
G37*
G36*
X0057552Y0041525D02*
X0056718Y0042359D01*
X0061170Y0046811D01*
X0062004Y0045977D01*
X0057552Y0041525D01*
G37*
G36*
X0087339Y0074097D02*
X0086505Y0074931D01*
X0090957Y0079383D01*
X0091791Y0078549D01*
X0087339Y0074097D01*
G37*
G36*
X0088731Y0072705D02*
X0087897Y0073539D01*
X0092349Y0077991D01*
X0093183Y0077157D01*
X0088731Y0072705D01*
G37*
G36*
X0085947Y0075489D02*
X0085113Y0076323D01*
X0089565Y0080775D01*
X0090399Y0079941D01*
X0085947Y0075489D01*
G37*
G36*
X0084555Y0076881D02*
X0083721Y0077715D01*
X0088173Y0082167D01*
X0089007Y0081333D01*
X0084555Y0076881D01*
G37*
G36*
X0083163Y0078273D02*
X0082329Y0079107D01*
X0086781Y0083559D01*
X0087615Y0082725D01*
X0083163Y0078273D01*
G37*
G36*
X0081771Y0079665D02*
X0080937Y0080499D01*
X0085389Y0084951D01*
X0086223Y0084117D01*
X0081771Y0079665D01*
G37*
G36*
X0080379Y0081056D02*
X0079545Y0081890D01*
X0083997Y0086342D01*
X0084831Y0085508D01*
X0080379Y0081056D01*
G37*
G36*
X0078987Y0082448D02*
X0078153Y0083282D01*
X0082605Y0087734D01*
X0083439Y0086900D01*
X0078987Y0082448D01*
G37*
G36*
X0077596Y0083840D02*
X0076762Y0084674D01*
X0081214Y0089126D01*
X0082048Y0088292D01*
X0077596Y0083840D01*
G37*
G36*
X0076204Y0085232D02*
X0075370Y0086066D01*
X0079822Y0090518D01*
X0080656Y0089684D01*
X0076204Y0085232D01*
G37*
G36*
X0074812Y0086624D02*
X0073978Y0087458D01*
X0078430Y0091910D01*
X0079264Y0091076D01*
X0074812Y0086624D01*
G37*
G36*
X0073420Y0088016D02*
X0072586Y0088850D01*
X0077038Y0093302D01*
X0077872Y0092468D01*
X0073420Y0088016D01*
G37*
G36*
X0072028Y0089408D02*
X0071194Y0090242D01*
X0075646Y0094694D01*
X0076480Y0093860D01*
X0072028Y0089408D01*
G37*
G36*
X0070636Y0090800D02*
X0069802Y0091634D01*
X0074254Y0096086D01*
X0075088Y0095252D01*
X0070636Y0090800D01*
G37*
G36*
X0069244Y0092192D02*
X0068410Y0093026D01*
X0072862Y0097478D01*
X0073696Y0096644D01*
X0069244Y0092192D01*
G37*
G36*
X0067852Y0093584D02*
X0067018Y0094418D01*
X0071470Y0098870D01*
X0072304Y0098036D01*
X0067852Y0093584D01*
G37*
D15*
G36*
X0061170Y0093584D02*
X0056718Y0098036D01*
X0057552Y0098870D01*
X0062004Y0094418D01*
X0061170Y0093584D01*
G37*
G36*
X0059778Y0092192D02*
X0055326Y0096644D01*
X0056160Y0097478D01*
X0060612Y0093026D01*
X0059778Y0092192D01*
G37*
G36*
X0058386Y0090800D02*
X0053934Y0095252D01*
X0054768Y0096086D01*
X0059220Y0091634D01*
X0058386Y0090800D01*
G37*
G36*
X0056994Y0089408D02*
X0052542Y0093860D01*
X0053376Y0094694D01*
X0057828Y0090242D01*
X0056994Y0089408D01*
G37*
G36*
X0055602Y0088016D02*
X0051150Y0092468D01*
X0051984Y0093302D01*
X0056436Y0088850D01*
X0055602Y0088016D01*
G37*
G36*
X0054210Y0086624D02*
X0049758Y0091076D01*
X0050592Y0091910D01*
X0055044Y0087458D01*
X0054210Y0086624D01*
G37*
G36*
X0052818Y0085232D02*
X0048366Y0089684D01*
X0049200Y0090518D01*
X0053652Y0086066D01*
X0052818Y0085232D01*
G37*
G36*
X0051426Y0083840D02*
X0046974Y0088292D01*
X0047808Y0089126D01*
X0052260Y0084674D01*
X0051426Y0083840D01*
G37*
G36*
X0050034Y0082448D02*
X0045582Y0086900D01*
X0046416Y0087734D01*
X0050868Y0083282D01*
X0050034Y0082448D01*
G37*
G36*
X0048642Y0081056D02*
X0044190Y0085508D01*
X0045024Y0086342D01*
X0049476Y0081890D01*
X0048642Y0081056D01*
G37*
G36*
X0047250Y0079665D02*
X0042798Y0084117D01*
X0043632Y0084951D01*
X0048084Y0080499D01*
X0047250Y0079665D01*
G37*
G36*
X0045858Y0078273D02*
X0041406Y0082725D01*
X0042240Y0083559D01*
X0046692Y0079107D01*
X0045858Y0078273D01*
G37*
G36*
X0044466Y0076881D02*
X0040014Y0081333D01*
X0040848Y0082167D01*
X0045300Y0077715D01*
X0044466Y0076881D01*
G37*
G36*
X0043074Y0075489D02*
X0038622Y0079941D01*
X0039456Y0080775D01*
X0043908Y0076323D01*
X0043074Y0075489D01*
G37*
G36*
X0041682Y0074097D02*
X0037230Y0078549D01*
X0038064Y0079383D01*
X0042516Y0074931D01*
X0041682Y0074097D01*
G37*
G36*
X0040290Y0072705D02*
X0035838Y0077157D01*
X0036672Y0077991D01*
X0041124Y0073539D01*
X0040290Y0072705D01*
G37*
G36*
X0071470Y0041525D02*
X0067018Y0045977D01*
X0067852Y0046811D01*
X0072304Y0042359D01*
X0071470Y0041525D01*
G37*
G36*
X0072862Y0042917D02*
X0068410Y0047369D01*
X0069244Y0048203D01*
X0073696Y0043751D01*
X0072862Y0042917D01*
G37*
G36*
X0074254Y0044309D02*
X0069802Y0048761D01*
X0070636Y0049595D01*
X0075088Y0045143D01*
X0074254Y0044309D01*
G37*
G36*
X0075646Y0045701D02*
X0071194Y0050153D01*
X0072028Y0050987D01*
X0076480Y0046535D01*
X0075646Y0045701D01*
G37*
G36*
X0077038Y0047093D02*
X0072586Y0051545D01*
X0073420Y0052379D01*
X0077872Y0047927D01*
X0077038Y0047093D01*
G37*
G36*
X0078430Y0048485D02*
X0073978Y0052937D01*
X0074812Y0053771D01*
X0079264Y0049319D01*
X0078430Y0048485D01*
G37*
G36*
X0079822Y0049877D02*
X0075370Y0054329D01*
X0076204Y0055163D01*
X0080656Y0050711D01*
X0079822Y0049877D01*
G37*
G36*
X0081214Y0051269D02*
X0076762Y0055721D01*
X0077596Y0056555D01*
X0082048Y0052103D01*
X0081214Y0051269D01*
G37*
G36*
X0082605Y0052661D02*
X0078153Y0057113D01*
X0078987Y0057947D01*
X0083439Y0053495D01*
X0082605Y0052661D01*
G37*
G36*
X0083997Y0054053D02*
X0079545Y0058505D01*
X0080379Y0059339D01*
X0084831Y0054887D01*
X0083997Y0054053D01*
G37*
G36*
X0085389Y0055445D02*
X0080937Y0059897D01*
X0081771Y0060731D01*
X0086223Y0056279D01*
X0085389Y0055445D01*
G37*
G36*
X0086781Y0056837D02*
X0082329Y0061289D01*
X0083163Y0062123D01*
X0087615Y0057671D01*
X0086781Y0056837D01*
G37*
G36*
X0088173Y0058229D02*
X0083721Y0062681D01*
X0084555Y0063515D01*
X0089007Y0059063D01*
X0088173Y0058229D01*
G37*
G36*
X0089565Y0059621D02*
X0085113Y0064073D01*
X0085947Y0064907D01*
X0090399Y0060455D01*
X0089565Y0059621D01*
G37*
G36*
X0090957Y0061012D02*
X0086505Y0065464D01*
X0087339Y0066298D01*
X0091791Y0061846D01*
X0090957Y0061012D01*
G37*
G36*
X0092349Y0062404D02*
X0087897Y0066856D01*
X0088731Y0067690D01*
X0093183Y0063238D01*
X0092349Y0062404D01*
G37*
D16*
X0009361Y0040198D03*
X0009361Y0015394D03*
X0009361Y0100198D03*
X0009361Y0125001D03*
D17*
X0108487Y0106765D03*
X0108487Y0089835D03*
D18*
X0104816Y0067300D03*
X0114658Y0067300D03*
M02*
