G75*
%MOIN*%
%OFA0B0*%
%FSLAX25Y25*%
%IPPOS*%
%LPD*%
%AMOC8*
5,1,8,0,0,1.08239X$1,22.5*
%
%ADD10C,0.00400*%
%ADD11R,0.02369X0.02369*%
%ADD12R,0.03550X0.03550*%
%ADD13R,0.03550X0.03943*%
%ADD14R,0.01581X0.06699*%
%ADD15R,0.06699X0.01581*%
%ADD16R,0.06699X0.09455*%
%ADD17R,0.10636X0.07880*%
%ADD18C,0.04762*%
%ADD19C,0.03975*%
%ADD20R,0.04731X0.07880*%
D10*
X0001487Y0009174D02*
X0001487Y0131221D01*
X0001489Y0131414D01*
X0001496Y0131607D01*
X0001508Y0131800D01*
X0001525Y0131993D01*
X0001546Y0132185D01*
X0001572Y0132376D01*
X0001603Y0132567D01*
X0001638Y0132757D01*
X0001678Y0132946D01*
X0001723Y0133134D01*
X0001772Y0133321D01*
X0001826Y0133507D01*
X0001884Y0133691D01*
X0001947Y0133874D01*
X0002015Y0134055D01*
X0002086Y0134234D01*
X0002163Y0134412D01*
X0002243Y0134588D01*
X0002328Y0134761D01*
X0002417Y0134933D01*
X0002510Y0135102D01*
X0002607Y0135269D01*
X0002709Y0135434D01*
X0002814Y0135596D01*
X0002923Y0135755D01*
X0003037Y0135912D01*
X0003154Y0136065D01*
X0003274Y0136216D01*
X0003399Y0136364D01*
X0003527Y0136509D01*
X0003658Y0136650D01*
X0003793Y0136789D01*
X0003932Y0136924D01*
X0004073Y0137055D01*
X0004218Y0137183D01*
X0004366Y0137308D01*
X0004517Y0137428D01*
X0004670Y0137545D01*
X0004827Y0137659D01*
X0004986Y0137768D01*
X0005148Y0137873D01*
X0005313Y0137975D01*
X0005480Y0138072D01*
X0005649Y0138165D01*
X0005821Y0138254D01*
X0005994Y0138339D01*
X0006170Y0138419D01*
X0006348Y0138496D01*
X0006527Y0138567D01*
X0006708Y0138635D01*
X0006891Y0138698D01*
X0007075Y0138756D01*
X0007261Y0138810D01*
X0007448Y0138859D01*
X0007636Y0138904D01*
X0007825Y0138944D01*
X0008015Y0138979D01*
X0008206Y0139010D01*
X0008397Y0139036D01*
X0008589Y0139057D01*
X0008782Y0139074D01*
X0008975Y0139086D01*
X0009168Y0139093D01*
X0009361Y0139095D01*
X0119660Y0139095D01*
X0119850Y0139093D01*
X0120040Y0139086D01*
X0120230Y0139074D01*
X0120420Y0139058D01*
X0120609Y0139038D01*
X0120798Y0139012D01*
X0120986Y0138983D01*
X0121173Y0138948D01*
X0121359Y0138909D01*
X0121544Y0138866D01*
X0121729Y0138818D01*
X0121912Y0138766D01*
X0122093Y0138710D01*
X0122273Y0138649D01*
X0122452Y0138583D01*
X0122629Y0138514D01*
X0122805Y0138440D01*
X0122978Y0138362D01*
X0123150Y0138279D01*
X0123319Y0138193D01*
X0123487Y0138103D01*
X0123652Y0138008D01*
X0123815Y0137910D01*
X0123975Y0137807D01*
X0124133Y0137701D01*
X0124288Y0137591D01*
X0124441Y0137478D01*
X0124591Y0137360D01*
X0124737Y0137239D01*
X0124881Y0137115D01*
X0125022Y0136987D01*
X0125160Y0136856D01*
X0125295Y0136721D01*
X0125426Y0136583D01*
X0125554Y0136442D01*
X0125678Y0136298D01*
X0125799Y0136152D01*
X0125917Y0136002D01*
X0126030Y0135849D01*
X0126140Y0135694D01*
X0126246Y0135536D01*
X0126349Y0135376D01*
X0126447Y0135213D01*
X0126542Y0135048D01*
X0126632Y0134880D01*
X0126718Y0134711D01*
X0126801Y0134539D01*
X0126879Y0134366D01*
X0126953Y0134190D01*
X0127022Y0134013D01*
X0127088Y0133834D01*
X0127149Y0133654D01*
X0127205Y0133473D01*
X0127257Y0133290D01*
X0127305Y0133105D01*
X0127348Y0132920D01*
X0127387Y0132734D01*
X0127422Y0132547D01*
X0127451Y0132359D01*
X0127477Y0132170D01*
X0127497Y0131981D01*
X0127513Y0131791D01*
X0127525Y0131601D01*
X0127532Y0131411D01*
X0127534Y0131221D01*
X0127534Y0009174D01*
X0127532Y0008984D01*
X0127525Y0008794D01*
X0127513Y0008604D01*
X0127497Y0008414D01*
X0127477Y0008225D01*
X0127451Y0008036D01*
X0127422Y0007848D01*
X0127387Y0007661D01*
X0127348Y0007475D01*
X0127305Y0007290D01*
X0127257Y0007105D01*
X0127205Y0006922D01*
X0127149Y0006741D01*
X0127088Y0006561D01*
X0127022Y0006382D01*
X0126953Y0006205D01*
X0126879Y0006029D01*
X0126801Y0005856D01*
X0126718Y0005684D01*
X0126632Y0005515D01*
X0126542Y0005347D01*
X0126447Y0005182D01*
X0126349Y0005019D01*
X0126246Y0004859D01*
X0126140Y0004701D01*
X0126030Y0004546D01*
X0125917Y0004393D01*
X0125799Y0004243D01*
X0125678Y0004097D01*
X0125554Y0003953D01*
X0125426Y0003812D01*
X0125295Y0003674D01*
X0125160Y0003539D01*
X0125022Y0003408D01*
X0124881Y0003280D01*
X0124737Y0003156D01*
X0124591Y0003035D01*
X0124441Y0002917D01*
X0124288Y0002804D01*
X0124133Y0002694D01*
X0123975Y0002588D01*
X0123815Y0002485D01*
X0123652Y0002387D01*
X0123487Y0002292D01*
X0123319Y0002202D01*
X0123150Y0002116D01*
X0122978Y0002033D01*
X0122805Y0001955D01*
X0122629Y0001881D01*
X0122452Y0001812D01*
X0122273Y0001746D01*
X0122093Y0001685D01*
X0121912Y0001629D01*
X0121729Y0001577D01*
X0121544Y0001529D01*
X0121359Y0001486D01*
X0121173Y0001447D01*
X0120986Y0001412D01*
X0120798Y0001383D01*
X0120609Y0001357D01*
X0120420Y0001337D01*
X0120230Y0001321D01*
X0120040Y0001309D01*
X0119850Y0001302D01*
X0119660Y0001300D01*
X0009361Y0001300D01*
X0009171Y0001302D01*
X0008981Y0001309D01*
X0008791Y0001321D01*
X0008601Y0001337D01*
X0008412Y0001357D01*
X0008223Y0001383D01*
X0008035Y0001412D01*
X0007848Y0001447D01*
X0007662Y0001486D01*
X0007477Y0001529D01*
X0007292Y0001577D01*
X0007109Y0001629D01*
X0006928Y0001685D01*
X0006748Y0001746D01*
X0006569Y0001812D01*
X0006392Y0001881D01*
X0006216Y0001955D01*
X0006043Y0002033D01*
X0005871Y0002116D01*
X0005702Y0002202D01*
X0005534Y0002292D01*
X0005369Y0002387D01*
X0005206Y0002485D01*
X0005046Y0002588D01*
X0004888Y0002694D01*
X0004733Y0002804D01*
X0004580Y0002917D01*
X0004430Y0003035D01*
X0004284Y0003156D01*
X0004140Y0003280D01*
X0003999Y0003408D01*
X0003861Y0003539D01*
X0003726Y0003674D01*
X0003595Y0003812D01*
X0003467Y0003953D01*
X0003343Y0004097D01*
X0003222Y0004243D01*
X0003104Y0004393D01*
X0002991Y0004546D01*
X0002881Y0004701D01*
X0002775Y0004859D01*
X0002672Y0005019D01*
X0002574Y0005182D01*
X0002479Y0005347D01*
X0002389Y0005515D01*
X0002303Y0005684D01*
X0002220Y0005856D01*
X0002142Y0006029D01*
X0002068Y0006205D01*
X0001999Y0006382D01*
X0001933Y0006561D01*
X0001872Y0006741D01*
X0001816Y0006922D01*
X0001764Y0007105D01*
X0001716Y0007290D01*
X0001673Y0007475D01*
X0001634Y0007661D01*
X0001599Y0007848D01*
X0001570Y0008036D01*
X0001544Y0008225D01*
X0001524Y0008414D01*
X0001508Y0008604D01*
X0001496Y0008794D01*
X0001489Y0008984D01*
X0001487Y0009174D01*
D11*
X0022987Y0025800D03*
X0026987Y0025800D03*
X0026987Y0030800D03*
X0022987Y0030800D03*
X0029737Y0047800D03*
X0033737Y0047800D03*
X0033737Y0052800D03*
X0029737Y0052800D03*
X0024487Y0064800D03*
X0024487Y0068800D03*
X0012487Y0055800D03*
X0008487Y0055800D03*
X0008487Y0050300D03*
X0012487Y0050300D03*
X0012487Y0084300D03*
X0008487Y0084300D03*
X0008487Y0089800D03*
X0012487Y0089800D03*
X0023377Y0097805D03*
X0023377Y0101805D03*
X0043377Y0103505D03*
X0047377Y0103505D03*
X0047377Y0098505D03*
X0043377Y0098505D03*
X0043377Y0108505D03*
X0047377Y0108505D03*
X0047377Y0113505D03*
X0043377Y0113505D03*
X0083677Y0107005D03*
X0087677Y0107005D03*
X0087677Y0102005D03*
X0083677Y0102005D03*
X0097487Y0101300D03*
X0097487Y0105300D03*
X0097487Y0095300D03*
X0097487Y0091300D03*
X0100487Y0075800D03*
X0104487Y0075800D03*
X0114987Y0075800D03*
X0118987Y0075800D03*
X0093487Y0043300D03*
X0089487Y0043300D03*
X0052987Y0030800D03*
X0048987Y0030800D03*
X0048987Y0025800D03*
X0052987Y0025800D03*
D12*
X0023487Y0047300D03*
X0023487Y0053300D03*
X0089987Y0037300D03*
X0095987Y0037300D03*
D13*
X0024487Y0075300D03*
X0024487Y0081300D03*
D14*
G36*
X0036672Y0062121D02*
X0035555Y0063238D01*
X0040290Y0067973D01*
X0041407Y0066856D01*
X0036672Y0062121D01*
G37*
G36*
X0038064Y0060729D02*
X0036947Y0061846D01*
X0041682Y0066581D01*
X0042799Y0065464D01*
X0038064Y0060729D01*
G37*
G36*
X0039456Y0059338D02*
X0038339Y0060455D01*
X0043074Y0065190D01*
X0044191Y0064073D01*
X0039456Y0059338D01*
G37*
G36*
X0040848Y0057946D02*
X0039731Y0059063D01*
X0044466Y0063798D01*
X0045583Y0062681D01*
X0040848Y0057946D01*
G37*
G36*
X0042240Y0056554D02*
X0041123Y0057671D01*
X0045858Y0062406D01*
X0046975Y0061289D01*
X0042240Y0056554D01*
G37*
G36*
X0043632Y0055162D02*
X0042515Y0056279D01*
X0047250Y0061014D01*
X0048367Y0059897D01*
X0043632Y0055162D01*
G37*
G36*
X0045024Y0053770D02*
X0043907Y0054887D01*
X0048642Y0059622D01*
X0049759Y0058505D01*
X0045024Y0053770D01*
G37*
G36*
X0046416Y0052378D02*
X0045299Y0053495D01*
X0050034Y0058230D01*
X0051151Y0057113D01*
X0046416Y0052378D01*
G37*
G36*
X0047808Y0050986D02*
X0046691Y0052103D01*
X0051426Y0056838D01*
X0052543Y0055721D01*
X0047808Y0050986D01*
G37*
G36*
X0049200Y0049594D02*
X0048083Y0050711D01*
X0052818Y0055446D01*
X0053935Y0054329D01*
X0049200Y0049594D01*
G37*
G36*
X0050592Y0048202D02*
X0049475Y0049319D01*
X0054210Y0054054D01*
X0055327Y0052937D01*
X0050592Y0048202D01*
G37*
G36*
X0051984Y0046810D02*
X0050867Y0047927D01*
X0055602Y0052662D01*
X0056719Y0051545D01*
X0051984Y0046810D01*
G37*
G36*
X0053376Y0045418D02*
X0052259Y0046535D01*
X0056994Y0051270D01*
X0058111Y0050153D01*
X0053376Y0045418D01*
G37*
G36*
X0054768Y0044026D02*
X0053651Y0045143D01*
X0058386Y0049878D01*
X0059503Y0048761D01*
X0054768Y0044026D01*
G37*
G36*
X0056160Y0042634D02*
X0055043Y0043751D01*
X0059778Y0048486D01*
X0060895Y0047369D01*
X0056160Y0042634D01*
G37*
G36*
X0057552Y0041242D02*
X0056435Y0042359D01*
X0061170Y0047094D01*
X0062287Y0045977D01*
X0057552Y0041242D01*
G37*
G36*
X0087339Y0073814D02*
X0086222Y0074931D01*
X0090957Y0079666D01*
X0092074Y0078549D01*
X0087339Y0073814D01*
G37*
G36*
X0088731Y0072422D02*
X0087614Y0073539D01*
X0092349Y0078274D01*
X0093466Y0077157D01*
X0088731Y0072422D01*
G37*
G36*
X0085947Y0075206D02*
X0084830Y0076323D01*
X0089565Y0081058D01*
X0090682Y0079941D01*
X0085947Y0075206D01*
G37*
G36*
X0084555Y0076598D02*
X0083438Y0077715D01*
X0088173Y0082450D01*
X0089290Y0081333D01*
X0084555Y0076598D01*
G37*
G36*
X0083163Y0077990D02*
X0082046Y0079107D01*
X0086781Y0083842D01*
X0087898Y0082725D01*
X0083163Y0077990D01*
G37*
G36*
X0081771Y0079382D02*
X0080654Y0080499D01*
X0085389Y0085234D01*
X0086506Y0084117D01*
X0081771Y0079382D01*
G37*
G36*
X0080379Y0080773D02*
X0079262Y0081890D01*
X0083997Y0086625D01*
X0085114Y0085508D01*
X0080379Y0080773D01*
G37*
G36*
X0078987Y0082165D02*
X0077870Y0083282D01*
X0082605Y0088017D01*
X0083722Y0086900D01*
X0078987Y0082165D01*
G37*
G36*
X0077596Y0083557D02*
X0076479Y0084674D01*
X0081214Y0089409D01*
X0082331Y0088292D01*
X0077596Y0083557D01*
G37*
G36*
X0076204Y0084949D02*
X0075087Y0086066D01*
X0079822Y0090801D01*
X0080939Y0089684D01*
X0076204Y0084949D01*
G37*
G36*
X0074812Y0086341D02*
X0073695Y0087458D01*
X0078430Y0092193D01*
X0079547Y0091076D01*
X0074812Y0086341D01*
G37*
G36*
X0073420Y0087733D02*
X0072303Y0088850D01*
X0077038Y0093585D01*
X0078155Y0092468D01*
X0073420Y0087733D01*
G37*
G36*
X0072028Y0089125D02*
X0070911Y0090242D01*
X0075646Y0094977D01*
X0076763Y0093860D01*
X0072028Y0089125D01*
G37*
G36*
X0070636Y0090517D02*
X0069519Y0091634D01*
X0074254Y0096369D01*
X0075371Y0095252D01*
X0070636Y0090517D01*
G37*
G36*
X0069244Y0091909D02*
X0068127Y0093026D01*
X0072862Y0097761D01*
X0073979Y0096644D01*
X0069244Y0091909D01*
G37*
G36*
X0067852Y0093301D02*
X0066735Y0094418D01*
X0071470Y0099153D01*
X0072587Y0098036D01*
X0067852Y0093301D01*
G37*
D15*
G36*
X0061170Y0093301D02*
X0056435Y0098036D01*
X0057552Y0099153D01*
X0062287Y0094418D01*
X0061170Y0093301D01*
G37*
G36*
X0059778Y0091909D02*
X0055043Y0096644D01*
X0056160Y0097761D01*
X0060895Y0093026D01*
X0059778Y0091909D01*
G37*
G36*
X0058386Y0090517D02*
X0053651Y0095252D01*
X0054768Y0096369D01*
X0059503Y0091634D01*
X0058386Y0090517D01*
G37*
G36*
X0056994Y0089125D02*
X0052259Y0093860D01*
X0053376Y0094977D01*
X0058111Y0090242D01*
X0056994Y0089125D01*
G37*
G36*
X0055602Y0087733D02*
X0050867Y0092468D01*
X0051984Y0093585D01*
X0056719Y0088850D01*
X0055602Y0087733D01*
G37*
G36*
X0054210Y0086341D02*
X0049475Y0091076D01*
X0050592Y0092193D01*
X0055327Y0087458D01*
X0054210Y0086341D01*
G37*
G36*
X0052818Y0084949D02*
X0048083Y0089684D01*
X0049200Y0090801D01*
X0053935Y0086066D01*
X0052818Y0084949D01*
G37*
G36*
X0051426Y0083557D02*
X0046691Y0088292D01*
X0047808Y0089409D01*
X0052543Y0084674D01*
X0051426Y0083557D01*
G37*
G36*
X0050034Y0082165D02*
X0045299Y0086900D01*
X0046416Y0088017D01*
X0051151Y0083282D01*
X0050034Y0082165D01*
G37*
G36*
X0048642Y0080773D02*
X0043907Y0085508D01*
X0045024Y0086625D01*
X0049759Y0081890D01*
X0048642Y0080773D01*
G37*
G36*
X0047250Y0079382D02*
X0042515Y0084117D01*
X0043632Y0085234D01*
X0048367Y0080499D01*
X0047250Y0079382D01*
G37*
G36*
X0045858Y0077990D02*
X0041123Y0082725D01*
X0042240Y0083842D01*
X0046975Y0079107D01*
X0045858Y0077990D01*
G37*
G36*
X0044466Y0076598D02*
X0039731Y0081333D01*
X0040848Y0082450D01*
X0045583Y0077715D01*
X0044466Y0076598D01*
G37*
G36*
X0043074Y0075206D02*
X0038339Y0079941D01*
X0039456Y0081058D01*
X0044191Y0076323D01*
X0043074Y0075206D01*
G37*
G36*
X0041682Y0073814D02*
X0036947Y0078549D01*
X0038064Y0079666D01*
X0042799Y0074931D01*
X0041682Y0073814D01*
G37*
G36*
X0040290Y0072422D02*
X0035555Y0077157D01*
X0036672Y0078274D01*
X0041407Y0073539D01*
X0040290Y0072422D01*
G37*
G36*
X0071470Y0041242D02*
X0066735Y0045977D01*
X0067852Y0047094D01*
X0072587Y0042359D01*
X0071470Y0041242D01*
G37*
G36*
X0072862Y0042634D02*
X0068127Y0047369D01*
X0069244Y0048486D01*
X0073979Y0043751D01*
X0072862Y0042634D01*
G37*
G36*
X0074254Y0044026D02*
X0069519Y0048761D01*
X0070636Y0049878D01*
X0075371Y0045143D01*
X0074254Y0044026D01*
G37*
G36*
X0075646Y0045418D02*
X0070911Y0050153D01*
X0072028Y0051270D01*
X0076763Y0046535D01*
X0075646Y0045418D01*
G37*
G36*
X0077038Y0046810D02*
X0072303Y0051545D01*
X0073420Y0052662D01*
X0078155Y0047927D01*
X0077038Y0046810D01*
G37*
G36*
X0078430Y0048202D02*
X0073695Y0052937D01*
X0074812Y0054054D01*
X0079547Y0049319D01*
X0078430Y0048202D01*
G37*
G36*
X0079822Y0049594D02*
X0075087Y0054329D01*
X0076204Y0055446D01*
X0080939Y0050711D01*
X0079822Y0049594D01*
G37*
G36*
X0081214Y0050986D02*
X0076479Y0055721D01*
X0077596Y0056838D01*
X0082331Y0052103D01*
X0081214Y0050986D01*
G37*
G36*
X0082605Y0052378D02*
X0077870Y0057113D01*
X0078987Y0058230D01*
X0083722Y0053495D01*
X0082605Y0052378D01*
G37*
G36*
X0083997Y0053770D02*
X0079262Y0058505D01*
X0080379Y0059622D01*
X0085114Y0054887D01*
X0083997Y0053770D01*
G37*
G36*
X0085389Y0055162D02*
X0080654Y0059897D01*
X0081771Y0061014D01*
X0086506Y0056279D01*
X0085389Y0055162D01*
G37*
G36*
X0086781Y0056554D02*
X0082046Y0061289D01*
X0083163Y0062406D01*
X0087898Y0057671D01*
X0086781Y0056554D01*
G37*
G36*
X0088173Y0057946D02*
X0083438Y0062681D01*
X0084555Y0063798D01*
X0089290Y0059063D01*
X0088173Y0057946D01*
G37*
G36*
X0089565Y0059338D02*
X0084830Y0064073D01*
X0085947Y0065190D01*
X0090682Y0060455D01*
X0089565Y0059338D01*
G37*
G36*
X0090957Y0060729D02*
X0086222Y0065464D01*
X0087339Y0066581D01*
X0092074Y0061846D01*
X0090957Y0060729D01*
G37*
G36*
X0092349Y0062121D02*
X0087614Y0066856D01*
X0088731Y0067973D01*
X0093466Y0063238D01*
X0092349Y0062121D01*
G37*
D16*
X0009361Y0040198D03*
X0009361Y0015394D03*
X0009361Y0100198D03*
X0009361Y0125001D03*
D17*
X0108487Y0106765D03*
X0108487Y0089835D03*
D18*
X0107818Y0125316D03*
X0107818Y0133190D03*
X0099944Y0133190D03*
X0099944Y0125316D03*
X0092070Y0125316D03*
X0092070Y0133190D03*
X0084196Y0133190D03*
X0084196Y0125316D03*
X0076322Y0125316D03*
X0076322Y0133190D03*
X0068448Y0133190D03*
X0068448Y0125316D03*
X0060574Y0125316D03*
X0060574Y0133190D03*
X0052700Y0133190D03*
X0052700Y0125316D03*
X0044826Y0125316D03*
X0044826Y0133190D03*
X0036952Y0133190D03*
X0036952Y0125316D03*
X0029078Y0125316D03*
X0029078Y0133190D03*
X0021204Y0133190D03*
X0021204Y0125316D03*
X0021204Y0015080D03*
X0021204Y0007206D03*
X0029078Y0007206D03*
X0029078Y0015080D03*
X0036952Y0015080D03*
X0036952Y0007206D03*
X0044826Y0007206D03*
X0044826Y0015080D03*
X0052700Y0015080D03*
X0052700Y0007206D03*
X0060574Y0007206D03*
X0060574Y0015080D03*
X0068448Y0015080D03*
X0068448Y0007206D03*
X0076322Y0007206D03*
X0076322Y0015080D03*
X0084196Y0015080D03*
X0084196Y0007206D03*
X0092070Y0007206D03*
X0092070Y0015080D03*
X0099944Y0015080D03*
X0099944Y0007206D03*
X0107818Y0007206D03*
X0107818Y0015080D03*
D19*
X0012071Y0067654D03*
X0012071Y0072654D03*
D20*
X0104816Y0067300D03*
X0114658Y0067300D03*
M02*
