%
M48
M72
T01C0.01181
T02C0.01575
T03C0.02362
%
T01
X9393Y133190
X22087Y111000
X19487Y89800
X19487Y84300
X29987Y75700
X35487Y70200
X34187Y66100
X29987Y63700
X21987Y59800
X26487Y40200
X22987Y35300
X31487Y28300
X34187Y40400
X18987Y22300
X9393Y7206
X50987Y20700
X68987Y33700
X72387Y23100
X92987Y30700
X111755Y36733
X121597Y36733
X111755Y50513
X109786Y60355
X119629Y60355
X109587Y73000
X99944Y60355
X93182Y67720
X97187Y69200
X95487Y72800
X92487Y86300
X90987Y89714
X86487Y97800
X82987Y111000
X85945Y114199
X88087Y118600
X99487Y110300
X102987Y118300
X115692Y129253
X121597Y119410
X117660Y111536
X117660Y97757
X117660Y85946
X99487Y86300
X78387Y70000
X71087Y70000
X67977Y77905
X60087Y81000
X64587Y89600
X64487Y99300
X70677Y104005
X70677Y114199
X73487Y118600
X60382Y118620
X52582Y113520
X54087Y109000
X50202Y71200
X56787Y66726
X60257Y56200
X87487Y52800
X121597Y20985
X115692Y11143
T02
X12071Y72654
X12071Y67654
T03
X21204Y133190
X21204Y125316
X29078Y125316
X29078Y133190
X36952Y133190
X36952Y125316
X44826Y125316
X44826Y133190
X52700Y133190
X52700Y125316
X60574Y125316
X60574Y133190
X68448Y133190
X68448Y125316
X76322Y125316
X76322Y133190
X84196Y133190
X84196Y125316
X92070Y125316
X92070Y133190
X99944Y133190
X99944Y125316
X107818Y125316
X107818Y133190
X107818Y15080
X107818Y7206
X99944Y7206
X99944Y15080
X92070Y15080
X92070Y7206
X84196Y7206
X84196Y15080
X76322Y15080
X76322Y7206
X68448Y7206
X68448Y15080
X60574Y15080
X60574Y7206
X52700Y7206
X52700Y15080
X44826Y15080
X44826Y7206
X36952Y7206
X36952Y15080
X29078Y15080
X29078Y7206
X21204Y7206
X21204Y15080
M30
