G75*
%MOIN*%
%OFA0B0*%
%FSLAX25Y25*%
%IPPOS*%
%LPD*%
%AMOC8*
5,1,8,0,0,1.08239X$1,22.5*
%
%ADD10C,0.00400*%
D10*
X0001487Y0009174D02*
X0001487Y0131221D01*
X0001489Y0131414D01*
X0001496Y0131607D01*
X0001508Y0131800D01*
X0001525Y0131993D01*
X0001546Y0132185D01*
X0001572Y0132376D01*
X0001603Y0132567D01*
X0001638Y0132757D01*
X0001678Y0132946D01*
X0001723Y0133134D01*
X0001772Y0133321D01*
X0001826Y0133507D01*
X0001884Y0133691D01*
X0001947Y0133874D01*
X0002015Y0134055D01*
X0002086Y0134234D01*
X0002163Y0134412D01*
X0002243Y0134588D01*
X0002328Y0134761D01*
X0002417Y0134933D01*
X0002510Y0135102D01*
X0002607Y0135269D01*
X0002709Y0135434D01*
X0002814Y0135596D01*
X0002923Y0135755D01*
X0003037Y0135912D01*
X0003154Y0136065D01*
X0003274Y0136216D01*
X0003399Y0136364D01*
X0003527Y0136509D01*
X0003658Y0136650D01*
X0003793Y0136789D01*
X0003932Y0136924D01*
X0004073Y0137055D01*
X0004218Y0137183D01*
X0004366Y0137308D01*
X0004517Y0137428D01*
X0004670Y0137545D01*
X0004827Y0137659D01*
X0004986Y0137768D01*
X0005148Y0137873D01*
X0005313Y0137975D01*
X0005480Y0138072D01*
X0005649Y0138165D01*
X0005821Y0138254D01*
X0005994Y0138339D01*
X0006170Y0138419D01*
X0006348Y0138496D01*
X0006527Y0138567D01*
X0006708Y0138635D01*
X0006891Y0138698D01*
X0007075Y0138756D01*
X0007261Y0138810D01*
X0007448Y0138859D01*
X0007636Y0138904D01*
X0007825Y0138944D01*
X0008015Y0138979D01*
X0008206Y0139010D01*
X0008397Y0139036D01*
X0008589Y0139057D01*
X0008782Y0139074D01*
X0008975Y0139086D01*
X0009168Y0139093D01*
X0009361Y0139095D01*
X0119660Y0139095D01*
X0119850Y0139093D01*
X0120040Y0139086D01*
X0120230Y0139074D01*
X0120420Y0139058D01*
X0120609Y0139038D01*
X0120798Y0139012D01*
X0120986Y0138983D01*
X0121173Y0138948D01*
X0121359Y0138909D01*
X0121544Y0138866D01*
X0121729Y0138818D01*
X0121912Y0138766D01*
X0122093Y0138710D01*
X0122273Y0138649D01*
X0122452Y0138583D01*
X0122629Y0138514D01*
X0122805Y0138440D01*
X0122978Y0138362D01*
X0123150Y0138279D01*
X0123319Y0138193D01*
X0123487Y0138103D01*
X0123652Y0138008D01*
X0123815Y0137910D01*
X0123975Y0137807D01*
X0124133Y0137701D01*
X0124288Y0137591D01*
X0124441Y0137478D01*
X0124591Y0137360D01*
X0124737Y0137239D01*
X0124881Y0137115D01*
X0125022Y0136987D01*
X0125160Y0136856D01*
X0125295Y0136721D01*
X0125426Y0136583D01*
X0125554Y0136442D01*
X0125678Y0136298D01*
X0125799Y0136152D01*
X0125917Y0136002D01*
X0126030Y0135849D01*
X0126140Y0135694D01*
X0126246Y0135536D01*
X0126349Y0135376D01*
X0126447Y0135213D01*
X0126542Y0135048D01*
X0126632Y0134880D01*
X0126718Y0134711D01*
X0126801Y0134539D01*
X0126879Y0134366D01*
X0126953Y0134190D01*
X0127022Y0134013D01*
X0127088Y0133834D01*
X0127149Y0133654D01*
X0127205Y0133473D01*
X0127257Y0133290D01*
X0127305Y0133105D01*
X0127348Y0132920D01*
X0127387Y0132734D01*
X0127422Y0132547D01*
X0127451Y0132359D01*
X0127477Y0132170D01*
X0127497Y0131981D01*
X0127513Y0131791D01*
X0127525Y0131601D01*
X0127532Y0131411D01*
X0127534Y0131221D01*
X0127534Y0009174D01*
X0127532Y0008984D01*
X0127525Y0008794D01*
X0127513Y0008604D01*
X0127497Y0008414D01*
X0127477Y0008225D01*
X0127451Y0008036D01*
X0127422Y0007848D01*
X0127387Y0007661D01*
X0127348Y0007475D01*
X0127305Y0007290D01*
X0127257Y0007105D01*
X0127205Y0006922D01*
X0127149Y0006741D01*
X0127088Y0006561D01*
X0127022Y0006382D01*
X0126953Y0006205D01*
X0126879Y0006029D01*
X0126801Y0005856D01*
X0126718Y0005684D01*
X0126632Y0005515D01*
X0126542Y0005347D01*
X0126447Y0005182D01*
X0126349Y0005019D01*
X0126246Y0004859D01*
X0126140Y0004701D01*
X0126030Y0004546D01*
X0125917Y0004393D01*
X0125799Y0004243D01*
X0125678Y0004097D01*
X0125554Y0003953D01*
X0125426Y0003812D01*
X0125295Y0003674D01*
X0125160Y0003539D01*
X0125022Y0003408D01*
X0124881Y0003280D01*
X0124737Y0003156D01*
X0124591Y0003035D01*
X0124441Y0002917D01*
X0124288Y0002804D01*
X0124133Y0002694D01*
X0123975Y0002588D01*
X0123815Y0002485D01*
X0123652Y0002387D01*
X0123487Y0002292D01*
X0123319Y0002202D01*
X0123150Y0002116D01*
X0122978Y0002033D01*
X0122805Y0001955D01*
X0122629Y0001881D01*
X0122452Y0001812D01*
X0122273Y0001746D01*
X0122093Y0001685D01*
X0121912Y0001629D01*
X0121729Y0001577D01*
X0121544Y0001529D01*
X0121359Y0001486D01*
X0121173Y0001447D01*
X0120986Y0001412D01*
X0120798Y0001383D01*
X0120609Y0001357D01*
X0120420Y0001337D01*
X0120230Y0001321D01*
X0120040Y0001309D01*
X0119850Y0001302D01*
X0119660Y0001300D01*
X0009361Y0001300D01*
X0014514Y0005437D02*
X0016382Y0005437D01*
X0015448Y0005437D02*
X0015448Y0008239D01*
X0014514Y0007305D01*
X0009361Y0001300D02*
X0009171Y0001302D01*
X0008981Y0001309D01*
X0008791Y0001321D01*
X0008601Y0001337D01*
X0008412Y0001357D01*
X0008223Y0001383D01*
X0008035Y0001412D01*
X0007848Y0001447D01*
X0007662Y0001486D01*
X0007477Y0001529D01*
X0007292Y0001577D01*
X0007109Y0001629D01*
X0006928Y0001685D01*
X0006748Y0001746D01*
X0006569Y0001812D01*
X0006392Y0001881D01*
X0006216Y0001955D01*
X0006043Y0002033D01*
X0005871Y0002116D01*
X0005702Y0002202D01*
X0005534Y0002292D01*
X0005369Y0002387D01*
X0005206Y0002485D01*
X0005046Y0002588D01*
X0004888Y0002694D01*
X0004733Y0002804D01*
X0004580Y0002917D01*
X0004430Y0003035D01*
X0004284Y0003156D01*
X0004140Y0003280D01*
X0003999Y0003408D01*
X0003861Y0003539D01*
X0003726Y0003674D01*
X0003595Y0003812D01*
X0003467Y0003953D01*
X0003343Y0004097D01*
X0003222Y0004243D01*
X0003104Y0004393D01*
X0002991Y0004546D01*
X0002881Y0004701D01*
X0002775Y0004859D01*
X0002672Y0005019D01*
X0002574Y0005182D01*
X0002479Y0005347D01*
X0002389Y0005515D01*
X0002303Y0005684D01*
X0002220Y0005856D01*
X0002142Y0006029D01*
X0002068Y0006205D01*
X0001999Y0006382D01*
X0001933Y0006561D01*
X0001872Y0006741D01*
X0001816Y0006922D01*
X0001764Y0007105D01*
X0001716Y0007290D01*
X0001673Y0007475D01*
X0001634Y0007661D01*
X0001599Y0007848D01*
X0001570Y0008036D01*
X0001544Y0008225D01*
X0001524Y0008414D01*
X0001508Y0008604D01*
X0001496Y0008794D01*
X0001489Y0008984D01*
X0001487Y0009174D01*
X0020419Y0117642D02*
X0022288Y0117642D01*
X0021354Y0117642D02*
X0021354Y0120444D01*
X0020419Y0119510D01*
M02*
